/* XPM */
static char *_4129da2e0ea470698f9099770bde6fcr62S9MXCz3j86BYk[] = {
/* columns rows colors chars-per-pixel */
"64 64 11 1 ",
"  c #BD8958",
". c #BE8958",
"X c #BE8A58",
"o c #BF8A59",
"O c #C08B59",
"+ c #C18C5A",
"@ c #C28C5A",
"# c #C28D5A",
"$ c #C38D5B",
"% c #C48E5B",
"& c #C58F5C",
/* pixels */
"      &&&&             O&&           O&&&&&&&&&&&&&&&&&&&&      ",
"     %&&&&$            O&&           &&&&&&&&&&&&&&&&&&&&&      ",
"    $%&&&&&O           O&&          O&&&&&&&&&&&&&&&&&&&&&      ",
"    &&&&&&&%           O&&         O&&&&&&&&&&&&&&&&&&&&&&      ",
"   %&&&&&&&&$          O&&OO       &&&&&$O@&&&&&&&&&&&&&&&&O    ",
"  %&&&&&&&&&%$        O&&&&&&OO   @&&OO    $&&&&&&&&&&&&&&&&&OO ",
"$$%&&&&&&&&&&%     O%&&&&&&&&&&&O@&@        &&&&&&&&&&&&&&&&&&&&",
"&&&&&&&&&&&&&%$ O&&&&&&&&&&&&&&&&&&         O&&&&&&&&&&&&&&&&&&&",
"&&&&&&&&&&&&&&&&&&OO  &&&&&&&&&&&&&O         &&&&&&&&&&&&&&&&&&&",
"&&&&&&&&&&&&&&&&&O    O&&&&&&&&&&&&          O&&&&&&&&&&&&&&&&&&",
"&&&&&&&&&&&&&&&&&$     &&&&&&&&&&&&           &&&&&&&&&&&&&&&&&&",
"&&&&&&&&&&&&&&&&&O     &&&&&&&&&&&&          O&&&&&&&&&&&OO&&&&&",
"&&&&&&&&&&&&&&&&&$    %&&&&&&&&&&&$         O&&&&&&&&&&&@   O&&&",
"%&&&&&&&&&&&&&&&&&%O O&&&&&&&&&&&&&$O      O&&&&&&&&&&&O       O",
"  $&&&&&&&&&&&&&&&&&&&&&&&&&&&&&&&&&&$O   O&&&&&&&&&&&&O        ",
"  $&&&&&&&&&&&&&&&&&&&&&&&&&&&&&&&&&&&&&OO&&&&&&&&&&&&O         ",
"  $&&&&&&&&&&&&&&&&&&&&&&&&&&&&&&&&&&&&&&&&&&&&&&&&&&$          ",
"  $&&&&&&$$&&&&&&&&&&&&&&&&&&&&&&&&&&&&&&&@&&&&&&&&&$           ",
"  %%$$O    &&&&&&&&&&&&&&&&&&&&&&&&&@OO    &&&&&&&&&O           ",
"  &$       O&&&&&&&&&&&&&&&&&&&&&&&&       O&&&&&&&&O           ",
"  &$        %&&&&&&&&&&&&&&&&&&&&&&O        %&&&&&&&&O          ",
"  &O        O&&&&&&&&&&&&&&&&&&&&&&O        O&&&&&&&&&          ",
"  &O         %&&&&&&&&&&&&&&&&&&&&&O         &&&&&&&&&O         ",
"  &          O&&&&&&&&&&&&&&&&&&&&&O         O&&&&&&&&&O        ",
"&&&          %&&&%&&&&&&&&&&&&&&&&&O         %&&&&&&&&&&     OOO",
"&$&         $&% O$&&&&&&&&&&&&&&&$&         %&@ OO&&&&&&$ OO$&&&",
"  %&$      %&&     O$%&&&&&&&%$O  $&OO    O$&%     O$&&&&&&&&$$O",
"   &&&%O O%&&O        $%&%%$       &&&OO O@&&O       OO$&&&OO   ",
"   $%&&&%%&&O           &&         O&&&&$&&&O           &&      ",
"    %&&&&%&%            &&          $&&&&&&$O           &&      ",
"     %&&&&%             &&          O&&&&&$             &&      ",
"     O&&&&O             &&           O&&&&O             &&      ",
"     O&&&&              &&           O&&&$              &&      ",
"     $&&&&O            O&&           $&&&&O             &&      ",
"    @&&&&&&O           O&&          O&&&&&&O           O&&      ",
"   O&&&&&&&&            &&         O&&&&&&&&           O&&      ",
"   $&&&&&&&&$          O&&@O       &&&&&&&&&$          O&&$O    ",
"  $&&&&&&&&&&O        O&&&&&&$O   $&&&&&&&&&&O        O@&&&&&OO ",
"@@&&&&&&&&&&&$O    O&&&&&&&&&&&&O$&&&&&&&&&&&$    OO&&&&&&&&&&&&",
"&&&&&&&&&&&&&$$OO&&&&&&&&&&&&&&&&&&&&&&&&&&&&&@O@&&&&&&&&&&&&&&&",
"&&&&&&&&&&&&&&&&&&OO  &&&&&&&&&&&&&&&&&&&&&&&&&&&&O .O&&&&&&&&&&",
"&&&&&&&&&&&&&&&&&O    $&&&&&&&&&&&&&&&&&&&&&&&&&&O  . @&&&&&&&&&",
"&&&&&&&&&&&&&&&&&OO    &&&&&&&&&&&&&&&&&&&&&&&&&&O  .. &&&&&&&&&",
"&&&&&&&&&&&&&&&&&O     $&O@&&&&&&&&&&&&&&&&&&&&&&O     &&O&&&&&&",
"&&&&&&&&&&&&&&&&&O    $&O   O$&&&&&&&&&&&&&&&&&&&O    $&O   O$&&",
"$&&&&&&&&&&&&&&&&&&O @&$      OO$&&&&&&&&&&&&&&&&&&@ O&$       O",
" O$&&&&&&&&&&&&&&&&&&&$O         O$&&&&&&&&&&&&&&&&&&&&O        ",
"  $&&&&&&&&&&&&&&&&&&&O           $&&&&&&&&&&&&&&&&&&&O         ",
"  @&&&&&&&&&&&&&&&&&&O            $&&&&&&&&&&&&&&&&&&@          ",
"  $&&&&&&$@&&&&&&&&&$             $&&&&&&@%&&&&&&&&&$           ",
"  $&$@O    &&&&&&&&&O             O&&OO    &&&&&&&&&O           ",
"  &@       @&&&&&&&&O             &&       O&&&&&&&&@           ",
"  &@        &&&&&&&&&O            &O        %&&&&&&&&O          ",
"  &O        O&&&&&&&&&            &O        O&&&&&&&&$          ",
"  &          &&&&&&&&&@           &O         %&&&&&&&&O         ",
" O&O         O&&&&&&&&&O          &O         O&&&&&&&&&O        ",
"&&&O         %&&&&&&&&&$O  O  O@&&&        . %&&&&&&&&&&      O@",
"&@&         %&% OO&&&&&&$  O$&&&&$&        O%%&&&&&&&&&&$ O@$&&&",
"  &&OO     %&%     O$&&&&&&&&&OO  &&OO     $&&&&&&&&&&&&&&&&&&@O",
"   &&&$O  &&&O       OO&&&$OO      &&&@O  &&&&&&&&&&&&&&&&&O    ",
"   O&&&&&&&&O           &&         O&&&&$&&&&&&&&&&&&&&&&&      ",
"    @&&&&&&O            &&          $&&&&&&&&&&&&&&&&&&&&&      ",
"     %&&&&&             &&          O&&&&&&&&&&&&&&&&&&&&&      ",
"     O&&&&O            O&&           O&&&&&&&&&&&&&&&&&&&&      "
};
