/* XPM */
static char *_e1a16c285ce46d7a768ab3700083f07JYElLiYuaPuE1PQY[] = {
/* columns rows colors chars-per-pixel */
"64 64 4 1 ",
"  c #D9CAA9",
". c #DACCAD",
"X c #DBCDAF",
"o c #DCCFB1",
/* pixels */
"                                                                ",
"                                                                ",
"ooooXX   .XoooooooooX.                   .XoooooooooX.   .Xooooo",
"oooooo   ooooooooooooo                   ooooooooooooo   ooooooo",
"oooooo   ooooooooooooo                   ooooooooooooo   ooooooo",
"oooooo   ooooooooooooo                   ooooooooooooo   ooooooo",
"oooooo   ooooooooooooo                   ooooooooooooo   ooooooo",
"oooooo   ooooooooooooo                   ooooooooooooo   ooooooo",
"oooooo   ooooooooooooo                   ooooooooooooo   ooooooo",
"ooooo.   .ooooooooooo.                   .ooooooooooo.   .oooooo",
"                                                                ",
"                                                                ",
"oooooooooX.   .XoooooooooX.   .XoooooooooX.   .XoooooooooX.   .X",
"ooooooooooo   ooooooooooooo   ooooooooooooo   ooooooooooooo   oo",
"ooooooooooo   ooooooooooooo   ooooooooooooo   ooooooooooooo   oo",
"ooooooooooo   ooooooooooooo   ooooooooooooo   ooooooooooooo   oo",
"ooooooooooo   ooooooooooooo   ooooooooooooo   ooooooooooooo   oo",
"ooooooooooo   ooooooooooooo   ooooooooooooo   ooooooooooooo   oo",
"ooooooooooo   ooooooooooooo   ooooooooooooo   ooooooooooooo   oo",
"ooooooooooo   ooooooooooooo   ooooooooooooo   ooooooooooooo   oo",
"oooooooooo.   .ooooooooooo.   .ooooooooooo.   .ooooooooooo.   .o",
"                                                                ",
"                                                                ",
"ooooX.                   .XoooooooooX.                   .Xooooo",
"oooooo                   ooooooooooooo                   ooooooo",
"oooooo                   ooooooooooooo                   ooooooo",
"oooooo                   ooooooooooooo                   ooooooo",
"oooooo                   ooooooooooooo                   ooooooo",
"oooooo                   ooooooooooooo                   ooooooo",
"oooooo                   ooooooooooooo                   ooooooo",
"oooooo                   ooooooooooooo                   ooooooo",
"ooooo.                   .ooooooooooo.                   .oooooo",
"                                                                ",
"                                                                ",
"oooooooooX.   .XoooooooooX.                   .XoooooooooX.   .X",
"ooooooooooo   ooooooooooooo                   ooooooooooooo   oo",
"ooooooooooo   ooooooooooooo                   ooooooooooooo   oo",
"ooooooooooo   ooooooooooooo                   ooooooooooooo   oo",
"ooooooooooo   ooooooooooooo                   ooooooooooooo   oo",
"ooooooooooo   ooooooooooooo                   ooooooooooooo   oo",
"ooooooooooo   ooooooooooooo                   ooooooooooooo   oo",
"ooooooooooo   ooooooooooooo                   ooooooooooooo   oo",
"oooooooooo.   .ooooooooooo.                   .ooooooooooo.   .o",
"                                                                ",
"                                                                ",
"         .XoooooooooX.   .XoooooooooX.   .XoooooooooX.          ",
"         ooooooooooooo   ooooooooooooo   ooooooooooooo          ",
"         ooooooooooooo   ooooooooooooo   ooooooooooooo          ",
"         ooooooooooooo   ooooooooooooo   ooooooooooooo          ",
"         ooooooooooooo   ooooooooooooo   ooooooooooooo          ",
"         ooooooooooooo   ooooooooooooo   ooooooooooooo          ",
"         ooooooooooooo   ooooooooooooo   ooooooooooooo          ",
"         .ooooooooooo.   .ooooooooooo.   .ooooooooooo.          ",
"                                                                ",
"                                                                ",
"oooooooooX.                   .XoooooooooX.   .XoooooooooX.   .X",
"ooooooooooo                   ooooooooooooo   ooooooooooooo   oo",
"ooooooooooo                   ooooooooooooo   ooooooooooooo   oo",
"ooooooooooo                   ooooooooooooo   ooooooooooooo   oo",
"ooooooooooo                   ooooooooooooo   ooooooooooooo   oo",
"ooooooooooo                   ooooooooooooo   ooooooooooooo   oo",
"ooooooooooo                   ooooooooooooo   ooooooooooooo   oo",
"ooooooooooo                   ooooooooooooo   ooooooooooooo   oo",
"oooooooooo.                   .ooooooooooo.   .ooooooooooo.   .o"
};
