/* XPM */
static char *c89c5d6571f34b1aacbf012925d44f72DbZlAb40kPLt74xx[] = {
/* columns rows colors chars-per-pixel */
"64 64 16 1 ",
"  c #63C5CF",
". c #64C5CF",
"X c #65C5CF",
"o c #66C6D0",
"O c #67C6D0",
"+ c #68C6D0",
"@ c #69C7D0",
"# c #6AC7D1",
"$ c #6BC7D1",
"% c #6CC8D1",
"& c #6DC8D1",
"* c #6EC8D2",
"= c #6FC9D2",
"- c #70C9D2",
"; c #71C9D2",
": c #72CAD3",
/* pixels */
"        o**oo     #::#                  o:*       @::@X         ",
"        o**       #::@                   ::       @::o          ",
"        o;;o      X::@                  X::       X::@          ",
"        o*:o      X@::                  o::        *:&X         ",
"      oo*:*o        *:*X               X:::         *:;         ",
"o  o  o;:::*        X:::+          X  o*:::&       Xo::;@ooooooo",
"::@@@@;;=**:*o    X@::::::::::::**##@*::&@=:*oo   X@::::::::::::",
"::::;;:*  oo::*#*::::@#oX*:::::::::::::o   *::****:::oX X@::::&@",
"::::**o     #::::::*o      #:::::::::@      #::::**@    X  &:::*",
"@            ::*X X         *:::*oo         X*:*  X         *:::",
"o            *:o           X::*o             *:X           X::@o",
"             *:            @:*              X::X           o:*  ",
"          XX::@            @:*X            X::@X           @:*  ",
"         X#::@             X::X           *::X             X::  ",
"         *:#                *:@          *:@                *:X ",
"        =:@                 X:@         ::@X                @:& ",
"       *:&                   :*        ::@                   :* ",
"      @:*                    :*       &:&                    :* ",
"    o&::                     :*     o;:@o                   X:* ",
"   o::*                     X:&    o;::                     o:@ ",
"   &::*                     @:o    ;::&                     #:X ",
"   :::*                    X::X   o:::*                     ::  ",
"  @::::o                  o::*    &::::o                  @::@  ",
"@*::::::X               X::::X Xo;::::::X               X*:::   ",
"::::::::*             @::::::*@*::&**:::=             @*:::::**:",
"@     o*::           :::::::::::&o  X @&:=          X:::::::::::",
"        @:@X  XXo   *::***&**@@ X       =:&    Xo   *::*&@###X  ",
"        o::**&:::::*:::       X          =:=**:::::*:::   X X   ",
"         @::::::::::::@X                 &::::::::::::&         ",
"         &:**@ooo&::::X                  *:=*@oo@&::::X         ",
"         *: o   X &:::                  X:* X     &::*          ",
"         *&       o::&                  o:*      X@::*          ",
"         :*       #::#                  o:*       @::#X         ",
"         ::      X#::@                  o::X      @::@          ",
"         ::       X::*                  o::       o::@          ",
"        o::        *:*                  @::       X*::          ",
"        *::         ::@                X::;X        &:@X        ",
"     X *:::@        X::*@          X  X::::@        o:::o     XX",
":@ooo@::**&:&o X   o*::::::::::::*@@@:::**::&X     o*:::::::::::",
":::::::@o X*::&@#*:::*@oX&:::::::::::::@   @::*##::::@oo@*::::*#",
":::::&o     &::::::*o      @::::::***@X     #::::::&X      #::*@",
"*@oXX        ::*oX          *:::*X X        X::*o          X*:::",
"             &:X           X::&X             *:X           X::*o",
"             ::            @::              X::            X:*  ",
"           @::#            @:*             o::@X           @:*  ",
"          @::@o            X::            &::@             X:*  ",
"         *:@o               *:@         X::*X               *:@ ",
"        ::o                X@:*         *:XX                @:& ",
"       &:@                   ::        =:@                   :* ",
"      @:*X                   ::       &:*                    :* ",
"     &:*                    X:*     o&:=o                    :* ",
"   o:::                     X:*     ::=                     X:@ ",
"   *::*                     +:@    &::*                     @:X ",
"  X:::*                    X::    X:::=                    X:*  ",
"  @::::                   +::+X   &::::                   @::@  ",
"o&::::::X               X::::   @*:::::*                X:::*   ",
"::::::::*X            @::::::@@:::::::::=             X*:::::@@*",
"*ooooo@*:*          X@::::::::::&o   o@*:*          X:::::::::::",
"X       &:@o        @:::::::::*       X &:@X o    X *::::&****& ",
"         ::*@@&:::**:::+     X           ::*@#&:::**:::+        ",
"         *::::::::::::o                  @::::::::::::+         ",
"         @:*@#@#@:::::o                  *:*####@:::::XX        ",
"         *:   X   &:::                   ::       &:::          ",
"        X:*       @:::                  o:*      X@::*          "
};
